<svg width="703" height="95" viewBox="0 0 703 95" fill="none" xmlns="http://www.w3.org/2000/svg">
<g clip-path="url(#clip0_851_2)">
<path opacity="0.4" d="M34.7411 0H133.242C138.607 0 143.548 2.86594 146.23 7.50797L164.967 40.0021C167.649 44.6441 167.649 50.376 164.967 55.0181L146.23 87.5122C143.548 92.1542 138.607 95.0202 133.242 95.0202H34.7411C29.3764 95.0202 24.4352 92.1542 21.7528 87.5122L3.01665 54.9979C0.334293 50.3559 0.334293 44.624 3.01665 39.9819L21.7528 7.50797C24.4352 2.86594 29.3764 0 34.7411 0Z" fill="white"/>
<path opacity="0.4" d="M34.7411 0H104.059C109.424 0 114.365 2.86594 117.047 7.50797L135.783 40.0021C138.466 44.6441 138.466 50.376 135.783 55.0181L117.047 87.5122C114.365 92.1542 109.424 95.0202 104.059 95.0202H34.7411C29.3764 95.0202 24.4352 92.1542 21.7528 87.5122L3.01665 54.9979C0.334293 50.3559 0.334293 44.624 3.01665 39.9819L21.7528 7.50797C24.4352 2.86594 29.3764 0 34.7411 0Z" fill="white"/>
<path d="M34.7411 0H74.8555C80.2202 0 85.1614 2.86594 87.8438 7.50797L106.58 40.0021C109.262 44.6441 109.262 50.376 106.58 55.0181L87.8438 87.5122C85.1614 92.1542 80.2202 95.0202 74.8555 95.0202H34.7411C29.3764 95.0202 24.4352 92.1542 21.7528 87.5122L3.01665 54.9979C0.334293 50.3559 0.334293 44.624 3.01665 39.9819L21.7528 7.50797C24.4352 2.86594 29.3764 0 34.7411 0Z" fill="white"/>
<path d="M487.045 28.9218H466.211V88.3801C466.211 90.2772 464.678 91.8313 462.762 91.8313H458.023C456.127 91.8313 454.574 90.2974 454.574 88.3801V28.9218H433.64C431.744 28.9218 430.191 27.3879 430.191 25.4706V22.1606C430.191 20.2634 431.724 18.7094 433.64 18.7094H487.025C488.92 18.7094 490.473 20.2432 490.473 22.1606V25.4706C490.473 27.3677 488.941 28.9218 487.025 28.9218H487.045Z" fill="white"/>
<path d="M261.883 22.1606V88.3599C261.883 90.257 260.35 91.8111 258.434 91.8111H253.695C251.799 91.8111 250.246 90.2772 250.246 88.3599V59.5793H213.419V88.3599C213.419 90.257 211.886 91.8111 209.97 91.8111H205.332C203.436 91.8111 201.883 90.2772 201.883 88.3599V22.1606C201.883 20.2634 203.416 18.7094 205.332 18.7094H209.97C211.866 18.7094 213.419 20.2432 213.419 22.1606V49.2862H250.246V22.1606C250.246 20.2634 251.779 18.7094 253.695 18.7094H258.434C260.33 18.7094 261.883 20.2432 261.883 22.1606Z" fill="white"/>
<path d="M276.888 25.6724V20.102C276.888 18.2048 278.421 16.6508 280.337 16.6508H284.774C286.669 16.6508 288.222 18.1846 288.222 20.102V25.6724C288.222 27.5696 286.69 29.1237 284.774 29.1237H280.337C278.441 29.1237 276.888 27.5898 276.888 25.6724ZM276.888 88.3599V41.4149C276.888 39.5178 278.421 37.9637 280.337 37.9637H284.774C286.669 37.9637 288.222 39.4976 288.222 41.4149V88.3599C288.222 90.2571 286.69 91.8112 284.774 91.8112H280.337C278.441 91.8112 276.888 90.2773 276.888 88.3599Z" fill="white"/>
<path d="M315.954 89.591L298.125 43.0497C297.258 40.7892 298.932 38.3673 301.332 38.3673H305.628C307.08 38.3673 308.37 39.2755 308.875 40.648L323.396 81.3565L337.896 40.648C338.381 39.2755 339.691 38.3673 341.144 38.3673H344.612C347.033 38.3673 348.686 40.7892 347.819 43.0497L329.991 89.591C329.486 90.9231 328.196 91.8111 326.784 91.8111H319.18C317.749 91.8111 316.478 90.9231 315.974 89.591H315.954Z" fill="white"/>
<path d="M380.27 92.8405C376.095 92.8405 372.303 92.1139 368.895 90.6405C365.507 89.1672 362.562 87.1691 360.102 84.6059C357.641 82.0629 355.725 79.1162 354.394 75.8264C353.063 72.5366 352.397 69.0047 352.397 65.2507C352.397 60.2252 353.567 55.6235 355.887 51.4659C358.226 47.2881 361.473 43.9378 365.648 41.3947C369.823 38.8517 374.724 37.5802 380.35 37.5802C385.977 37.5802 390.818 38.8517 394.912 41.3947C398.986 43.9378 402.172 47.2881 404.431 51.4255C406.69 55.563 407.819 60.0234 407.819 64.7865C407.819 64.9681 407.819 65.2709 407.779 65.6342C407.678 67.4506 406.166 68.8634 404.351 68.8634H364.418C364.619 71.9715 365.507 74.7164 367.04 77.0374C368.572 79.3584 370.549 81.195 372.949 82.5271C375.349 83.8591 377.91 84.505 380.673 84.505C383.698 84.505 386.542 83.7582 389.265 82.2445C391.201 81.1748 392.673 79.863 393.722 78.2887C394.508 77.0979 396.061 76.6337 397.433 77.0374L400.115 77.8043C402.435 78.4704 403.423 81.2959 401.93 83.1931C401.124 84.2224 400.196 85.1912 399.147 86.0994C396.787 88.1984 393.984 89.8332 390.757 91.0442C387.53 92.235 384.041 92.8405 380.27 92.8405ZM364.115 61.3352H396.626C396.424 58.3078 395.537 55.6235 394.004 53.3227C392.451 51.0017 390.515 49.1853 388.135 47.8734C385.756 46.5615 383.154 45.8955 380.27 45.8955C377.386 45.8955 374.865 46.5615 372.505 47.8734C370.145 49.1853 368.209 51.0017 366.697 53.3227C365.184 55.6437 364.337 58.3078 364.115 61.3352Z" fill="white"/>
<path d="M524.941 45.0478C524.941 46.5211 523.832 47.7523 522.359 47.9137C519.011 48.2569 515.986 49.2054 513.263 50.7393C509.875 52.6567 507.455 55.3612 506.003 58.873V88.3599C506.003 90.2571 504.47 91.8111 502.554 91.8111H498.117C496.221 91.8111 494.668 90.2773 494.668 88.3599V41.8186C494.668 39.9214 496.201 38.3673 498.117 38.3673H501.727C503.623 38.3673 505.176 39.9012 505.176 41.8186V50.0128C507.032 46.2991 509.452 43.3323 512.477 41.1122C515.502 38.8921 518.689 37.6609 522.037 37.4591C522.037 37.4591 522.037 37.4591 522.057 37.4591C523.63 37.4591 524.921 38.7508 524.921 40.3251V45.0276L524.941 45.0478Z" fill="white"/>
<path d="M529.156 76.2099C529.156 72.8192 530.124 69.8322 532.08 67.2891C534.036 64.7461 536.719 62.7682 540.147 61.3756C543.576 59.983 547.549 59.2766 552.087 59.2766C554.487 59.2766 556.947 59.4583 559.448 59.8014C561.949 60.1445 564.168 60.6894 566.084 61.4563V58.0858C566.084 54.3722 564.954 51.4659 562.695 49.3669C560.437 47.2679 557.169 46.2184 552.914 46.2184C549.889 46.2184 547.045 46.7431 544.383 47.8128C542.648 48.499 540.853 49.3669 538.978 50.4164C537.263 51.3852 535.085 50.7393 534.198 48.9834L533.452 47.4899C532.625 45.8551 533.25 43.857 534.823 42.9488C537.465 41.4149 540.127 40.204 542.789 39.3361C546.4 38.1655 550.171 37.5802 554.164 37.5802C561.364 37.5802 567.032 39.4572 571.186 43.2314C575.341 47.0055 577.418 52.3338 577.418 59.2564V79.096C577.418 80.3877 577.64 81.2959 578.084 81.8409C578.245 82.0427 578.467 82.2243 578.749 82.3656C579.758 82.8904 580.403 83.9399 580.403 85.0701V89.147C580.403 90.7213 579.213 92.0735 577.66 92.2148C577.66 92.2148 577.66 92.2148 577.64 92.2148C576.813 92.2753 576.127 92.3157 575.583 92.3157C573.183 92.3157 571.368 91.7304 570.137 90.5598C568.907 89.3892 568.181 88.0168 567.979 86.4425L567.677 83.3546C565.337 86.382 562.352 88.703 558.722 90.358C555.092 92.013 551.421 92.8203 547.71 92.8203C544 92.8203 540.954 92.0937 538.151 90.6204C535.347 89.1672 533.149 87.1691 531.576 84.6463C530.003 82.1234 529.216 79.318 529.216 76.1695L529.156 76.2099ZM563.401 79.4391C564.228 78.5713 564.874 77.6832 565.358 76.8154C565.842 75.9475 566.084 75.1604 566.084 74.4944V68.4194C564.168 67.6726 562.131 67.1277 560.013 66.7442C557.895 66.3809 555.798 66.1791 553.741 66.1791C549.626 66.1791 546.278 66.9864 543.717 68.601C541.156 70.2156 539.865 72.4559 539.865 75.2815C539.865 76.8356 540.289 78.3089 541.156 79.7419C542.003 81.1547 543.253 82.3051 544.867 83.1931C546.48 84.061 548.477 84.505 550.877 84.505C553.277 84.505 555.717 84.0408 557.976 83.0922C560.235 82.1436 562.05 80.9327 563.421 79.4391H563.401Z" fill="white"/>
<path d="M615.455 92.8405C611.281 92.8405 607.489 92.1139 604.081 90.6406C600.672 89.1672 597.748 87.149 595.287 84.5656C592.827 81.9822 590.911 79.0153 589.58 75.6852C588.249 72.355 587.583 68.8231 587.583 65.0893C587.583 60.0638 588.733 55.4621 591.032 51.3247C593.331 47.1872 596.558 43.8369 600.692 41.3342C604.847 38.8114 609.768 37.5601 615.455 37.5601C621.143 37.5601 625.721 38.771 629.795 41.2131C632.437 42.7874 634.615 44.7047 636.35 46.945C637.781 48.8018 636.854 51.5467 634.615 52.2733L630.259 53.6659C628.847 54.1099 627.375 53.5851 626.447 52.4145C625.398 51.1027 624.107 49.9926 622.595 49.1449C620.356 47.8734 617.916 47.2478 615.234 47.2478C612.208 47.2478 609.486 48.0147 607.065 49.5284C604.625 51.0421 602.709 53.1411 601.297 55.8254C599.886 58.4895 599.18 61.5977 599.18 65.1094C599.18 68.6212 599.906 71.5477 601.338 74.2926C602.77 77.0374 604.706 79.197 607.146 80.7914C609.586 82.3858 612.309 83.173 615.314 83.173C617.17 83.173 618.965 82.8501 620.719 82.2042C622.474 81.5584 623.986 80.6703 625.297 79.5199C625.943 78.9548 626.507 78.3493 626.971 77.7236C627.839 76.553 629.412 76.1494 630.803 76.5732L634.958 77.8044C637.237 78.4906 638.205 81.2556 636.773 83.1528C635.966 84.2225 635.039 85.2316 633.99 86.16C631.691 88.2186 628.988 89.8535 625.862 91.0442C622.736 92.235 619.267 92.8405 615.415 92.8405H615.455Z" fill="white"/>
<path d="M672.43 92.8405C668.255 92.8405 664.464 92.1139 661.055 90.6405C657.667 89.1672 654.723 87.1691 652.262 84.6059C649.802 82.0629 647.886 79.1162 646.555 75.8264C645.223 72.5366 644.558 69.0047 644.558 65.2507C644.558 60.2252 645.728 55.6235 648.047 51.4659C650.386 47.2881 653.634 43.9378 657.808 41.3947C661.983 38.8517 666.884 37.5802 672.511 37.5802C678.138 37.5802 682.978 38.8517 687.072 41.3947C691.146 43.9378 694.333 47.2881 696.592 51.4255C698.85 55.563 699.98 60.0234 699.98 64.7865C699.98 64.9681 699.98 65.2709 699.94 65.6342C699.839 67.4506 698.326 68.8634 696.511 68.8634H656.578C656.78 71.9715 657.667 74.7164 659.2 77.0374C660.733 79.3584 662.709 81.195 665.109 82.5271C667.509 83.8591 670.071 84.505 672.834 84.505C675.859 84.505 678.702 83.7582 681.425 82.2445C683.361 81.1748 684.834 79.863 685.882 78.2887C686.669 77.0979 688.222 76.6337 689.593 77.0374L692.276 77.8043C694.595 78.4704 695.583 81.2959 694.091 83.1931C693.284 84.2224 692.356 85.1912 691.308 86.0994C688.948 88.1984 686.145 89.8332 682.918 91.0442C679.691 92.235 676.202 92.8405 672.43 92.8405ZM656.276 61.3352H688.787C688.585 58.3078 687.697 55.6235 686.165 53.3227C684.612 51.0017 682.676 49.1853 680.296 47.8734C677.916 46.5615 675.314 45.8955 672.43 45.8955C669.546 45.8955 667.025 46.5615 664.665 47.8734C662.306 49.1853 660.37 51.0017 658.857 53.3227C657.344 55.6437 656.497 58.3078 656.276 61.3352Z" fill="white"/>
</g>
<defs>
<clipPath id="clip0_851_2">
<rect width="703" height="95" fill="white"/>
</clipPath>
</defs>
</svg>
