<svg
	width="668"
	height="94"
	viewBox="0 0 668 94"
	fill="none"
	xmlns="http://www.w3.org/2000/svg"
>
	<g clip-path="url(#clip0_105_19)">
		<path
			d="M456.96 28.1676H436.302V87.1247C436.302 89.0059 434.782 90.5468 432.882 90.5468H428.183C426.303 90.5468 424.763 89.0258 424.763 87.1247V28.1676H404.005C402.125 28.1676 400.586 26.6467 400.586 24.7455V21.4634C400.586 19.5822 402.106 18.0413 404.005 18.0413H456.94C458.819 18.0413 460.359 19.5623 460.359 21.4634V24.7455C460.359 26.6267 458.84 28.1676 456.94 28.1676H456.96Z"
			fill="#0a0a0a"
		/>
		<path
			d="M257.494 21.4634V87.1046C257.494 88.9858 255.974 90.5267 254.074 90.5267H249.375C247.495 90.5267 245.955 89.0059 245.955 87.1046V58.5668H209.439V87.1046C209.439 88.9858 207.919 90.5267 206.019 90.5267H201.42C199.54 90.5267 198 89.0059 198 87.1046V21.4634C198 19.5822 199.52 18.0413 201.42 18.0413H206.019C207.899 18.0413 209.439 19.5623 209.439 21.4634V48.3604H245.955V21.4634C245.955 19.5822 247.475 18.0413 249.375 18.0413H254.074C255.954 18.0413 257.494 19.5623 257.494 21.4634Z"
			fill="#0a0a0a"
		/>
		<path
			d="M272.373 24.9456V19.4222C272.373 17.541 273.893 16 275.793 16H280.192C282.072 16 283.612 17.521 283.612 19.4222V24.9456C283.612 26.8268 282.092 28.3677 280.192 28.3677H275.793C273.913 28.3677 272.373 26.8469 272.373 24.9456ZM272.373 87.1046V40.5554C272.373 38.6742 273.893 37.1333 275.793 37.1333H280.192C282.072 37.1333 283.612 38.6542 283.612 40.5554V87.1046C283.612 88.9857 282.092 90.5267 280.192 90.5267H275.793C273.913 90.5267 272.373 89.0058 272.373 87.1046Z"
			fill="#0a0a0a"
		/>
		<path
			d="M311.109 88.3254L293.431 42.1764C292.571 39.935 294.231 37.5335 296.611 37.5335H300.87C302.31 37.5335 303.589 38.4341 304.09 39.795L318.489 80.1603L332.867 39.795C333.347 38.4341 334.647 37.5335 336.087 37.5335H339.527C341.926 37.5335 343.566 39.935 342.706 42.1764L325.028 88.3254C324.527 89.6462 323.248 90.5267 321.848 90.5267H314.309C312.889 90.5267 311.629 89.6462 311.129 88.3254H311.109Z"
			fill="#0a0a0a"
		/>
		<path
			d="M374.883 91.5475C370.743 91.5475 366.983 90.827 363.604 89.366C360.245 87.9051 357.324 85.9239 354.885 83.3823C352.445 80.8607 350.545 77.9389 349.225 74.6768C347.905 71.4147 347.245 67.9126 347.245 64.1903C347.245 59.2071 348.405 54.6442 350.706 50.5217C353.025 46.3791 356.245 43.057 360.384 40.5354C364.524 38.0138 369.384 36.753 374.962 36.753C380.542 36.753 385.342 38.0138 389.402 40.5354C393.441 43.057 396.6 46.3791 398.84 50.4816C401.08 54.5842 402.2 59.007 402.2 63.73C402.2 63.91 402.2 64.2103 402.16 64.5705C402.06 66.3716 400.561 67.7725 398.761 67.7725H359.165C359.364 70.8544 360.245 73.5762 361.765 75.8776C363.284 78.179 365.244 80.0001 367.624 81.321C370.004 82.6418 372.543 83.2822 375.283 83.2822C378.282 83.2822 381.102 82.5417 383.802 81.0408C385.722 79.9801 387.181 78.6794 388.222 77.1183C389.001 75.9376 390.541 75.4773 391.901 75.8776L394.561 76.638C396.861 77.2985 397.841 80.1002 396.36 81.9814C395.561 83.002 394.641 83.9627 393.601 84.8632C391.261 86.9445 388.481 88.5655 385.282 89.7663C382.082 90.9471 378.622 91.5475 374.883 91.5475ZM358.864 60.3078H391.101C390.901 57.3059 390.021 54.6442 388.501 52.3628C386.961 50.0614 385.042 48.2603 382.682 46.9595C380.323 45.6586 377.743 44.9982 374.883 44.9982C372.023 44.9982 369.524 45.6586 367.184 46.9595C364.843 48.2603 362.924 50.0614 361.424 52.3628C359.924 54.6643 359.084 57.3059 358.864 60.3078Z"
			fill="#0a0a0a"
		/>
		<path
			d="M494.537 44.1577C494.537 45.6186 493.436 46.8394 491.977 46.9994C488.657 47.3397 485.657 48.2802 482.957 49.8012C479.598 51.7024 477.198 54.3841 475.758 57.8663V87.1046C475.758 88.9858 474.238 90.5267 472.338 90.5267H467.939C466.059 90.5267 464.519 89.0058 464.519 87.1046V40.9557C464.519 39.0745 466.039 37.5335 467.939 37.5335H471.518C473.398 37.5335 474.938 39.0545 474.938 40.9557V49.0808C476.778 45.3984 479.178 42.4567 482.178 40.2553C485.177 38.0539 488.337 36.8331 491.657 36.633C491.657 36.633 491.657 36.633 491.677 36.633C493.237 36.633 494.517 37.9138 494.517 39.4748V44.1377L494.537 44.1577Z"
			fill="#0a0a0a"
		/>
		<path
			d="M498.716 75.0571C498.716 71.695 499.676 68.7331 501.616 66.2115C503.556 63.6899 506.215 61.7287 509.616 60.3478C513.015 58.967 516.954 58.2665 521.454 58.2665C523.834 58.2665 526.274 58.4467 528.753 58.7869C531.233 59.1271 533.433 59.6674 535.333 60.4279V57.0858C535.333 53.4035 534.212 50.5217 531.972 48.4404C529.733 46.3591 526.493 45.3184 522.274 45.3184C519.274 45.3184 516.454 45.8387 513.815 46.8994C512.094 47.5798 510.315 48.4404 508.455 49.481C506.756 50.4417 504.595 49.8012 503.716 48.0601L502.976 46.5792C502.156 44.9582 502.776 42.9769 504.335 42.0764C506.955 40.5554 509.595 39.3546 512.235 38.4941C515.815 37.3334 519.554 36.753 523.513 36.753C530.653 36.753 536.273 38.6142 540.392 42.3566C544.512 46.0989 546.571 51.3823 546.571 58.2465V77.9188C546.571 79.1997 546.791 80.1002 547.232 80.6406C547.391 80.8407 547.611 81.0208 547.891 81.1609C548.892 81.6813 549.531 82.7219 549.531 83.8426V87.8851C549.531 89.4461 548.351 90.7869 546.811 90.927C546.811 90.927 546.811 90.927 546.791 90.927C545.971 90.987 545.291 91.0271 544.752 91.0271C542.372 91.0271 540.572 90.4467 539.353 89.286C538.132 88.1253 537.412 86.7644 537.213 85.2034L536.912 82.1415C534.592 85.1434 531.633 87.4449 528.033 89.0859C524.434 90.7269 520.794 91.5274 517.115 91.5274C513.435 91.5274 510.415 90.807 507.635 89.3461C504.856 87.9051 502.676 85.9239 501.116 83.4224C499.556 80.9207 498.776 78.139 498.776 75.017L498.716 75.0571ZM532.672 78.2591C533.493 77.3986 534.133 76.518 534.613 75.6575C535.093 74.7969 535.333 74.0164 535.333 73.356V67.3323C533.433 66.5918 531.413 66.0514 529.313 65.6712C527.213 65.3109 525.134 65.1108 523.094 65.1108C519.015 65.1108 515.695 65.9113 513.154 67.5123C510.615 69.1133 509.335 71.3347 509.335 74.1365C509.335 75.6775 509.755 77.1384 510.615 78.5593C511.455 79.9602 512.694 81.1009 514.295 81.9814C515.894 82.842 517.874 83.2822 520.254 83.2822C522.634 83.2822 525.053 82.822 527.293 81.8813C529.533 80.9407 531.333 79.7401 532.693 78.2591H532.672Z"
			fill="#0a0a0a"
		/>
		<path
			d="M584.288 91.5475C580.148 91.5475 576.389 90.827 573.009 89.366C569.629 87.9051 566.73 85.9039 564.29 83.3423C561.85 80.7807 559.951 77.8388 558.631 74.5368C557.31 71.2347 556.651 67.7325 556.651 64.0301C556.651 59.047 557.791 54.4842 560.071 50.3816C562.35 46.2791 565.55 42.9569 569.649 40.4754C573.769 37.9739 578.649 36.733 584.288 36.733C589.928 36.733 594.467 37.9338 598.507 40.3553C601.126 41.9163 603.286 43.8175 605.005 46.0389C606.425 47.88 605.506 50.6017 603.286 51.3222L598.967 52.703C597.567 53.1433 596.107 52.623 595.187 51.4623C594.147 50.1614 592.867 49.0608 591.367 48.2203C589.147 46.9595 586.728 46.339 584.067 46.339C581.068 46.339 578.368 47.0996 575.968 48.6005C573.549 50.1015 571.649 52.1828 570.249 54.8444C568.849 57.4861 568.15 60.568 568.15 64.0502C568.15 67.5323 568.87 70.4342 570.29 73.1559C571.709 75.8776 573.629 78.0189 576.049 79.5999C578.468 81.1809 581.168 81.9614 584.148 81.9614C585.988 81.9614 587.768 81.6412 589.507 81.0008C591.247 80.3604 592.747 79.4799 594.047 78.3392C594.687 77.7788 595.246 77.1784 595.707 76.558C596.566 75.3973 598.127 74.9971 599.506 75.4173L603.626 76.638C605.886 77.3185 606.846 80.0602 605.426 81.9414C604.626 83.002 603.706 84.0027 602.666 84.9233C600.387 86.9645 597.707 88.5855 594.607 89.7663C591.507 90.9471 588.067 91.5475 584.248 91.5475H584.288Z"
			fill="#0a0a0a"
		/>
		<path
			d="M640.782 91.5475C636.642 91.5475 632.883 90.827 629.503 89.366C626.144 87.9051 623.225 85.9239 620.784 83.3823C618.345 80.8607 616.445 77.9389 615.124 74.6768C613.805 71.4147 613.145 67.9126 613.145 64.1903C613.145 59.2071 614.305 54.6442 616.605 50.5217C618.924 46.3791 622.144 43.057 626.284 40.5354C630.423 38.0138 635.283 36.753 640.863 36.753C646.442 36.753 651.241 38.0138 655.301 40.5354C659.341 43.057 662.501 46.3791 664.741 50.4816C666.98 54.5842 668.1 59.007 668.1 63.73C668.1 63.91 668.1 64.2103 668.059 64.5705C667.96 66.3716 666.46 67.7725 664.66 67.7725H625.064C625.264 70.8544 626.144 73.5762 627.664 75.8776C629.184 78.179 631.143 80.0001 633.523 81.321C635.903 82.6418 638.443 83.2822 641.183 83.2822C644.182 83.2822 647.001 82.5417 649.701 81.0408C651.621 79.9801 653.082 78.6794 654.121 77.1183C654.901 75.9376 656.441 75.4773 657.801 75.8776L660.461 76.638C662.76 77.2985 663.74 80.1002 662.261 81.9814C661.46 83.002 660.54 83.9627 659.501 84.8632C657.161 86.9445 654.381 88.5655 651.182 89.7663C647.982 90.9471 644.522 91.5475 640.782 91.5475ZM624.764 60.3078H657.001C656.801 57.3059 655.921 54.6442 654.401 52.3628C652.862 50.0614 650.942 48.2603 648.582 46.9595C646.222 45.6586 643.642 44.9982 640.782 44.9982C637.923 44.9982 635.423 45.6586 633.083 46.9595C630.744 48.2603 628.824 50.0614 627.324 52.3628C625.823 54.6643 624.984 57.3059 624.764 60.3078Z"
			fill="#0a0a0a"
		/>
		<path
			opacity="0.4"
			d="M33.3296 0H130.644C135.944 0 140.825 2.8314 143.475 7.4175L161.986 39.5201C164.636 44.1061 164.636 49.769 161.986 54.3551L143.475 86.4576C140.825 91.0437 135.944 93.8752 130.644 93.8752H33.3296C28.0296 93.8752 23.1479 91.0437 20.4979 86.4576L1.98753 54.3352C-0.66251 49.7491 -0.66251 44.0863 1.98753 39.5001L20.4979 7.4175C23.1479 2.8314 28.0296 0 33.3296 0Z"
			fill="#0019FF"
		/>
		<path
			opacity="0.4"
			d="M33.3297 0H101.812C107.113 0 111.994 2.8314 114.644 7.4175L133.154 39.5201C135.805 44.1061 135.805 49.769 133.154 54.3551L114.644 86.4576C111.994 91.0437 107.113 93.8752 101.812 93.8752H33.3297C28.0296 93.8752 23.1479 91.0437 20.4979 86.4576L1.98753 54.3352C-0.66251 49.7491 -0.66251 44.0863 1.98753 39.5001L20.4979 7.4175C23.1479 2.8314 28.0296 0 33.3297 0Z"
			fill="#0019FF"
		/>
		<path
			opacity="0.4"
			d="M33.3297 0H72.9606C78.2608 0 83.1423 2.8314 85.7924 7.4175L104.303 39.5201C106.953 44.1061 106.953 49.769 104.303 54.3551L85.7924 86.4576C83.1423 91.0437 78.2608 93.8752 72.9606 93.8752H33.3297C28.0296 93.8752 23.1479 91.0437 20.4979 86.4576L1.98753 54.3352C-0.66251 49.7491 -0.66251 44.0863 1.98753 39.5001L20.4979 7.4175C23.1479 2.8314 28.0296 0 33.3297 0Z"
			fill="#0019FF"
		/>
	</g>
	<defs>
		<clipPath id="clip0_105_19">
			<rect width="668" height="94" fill="white" />
		</clipPath>
	</defs>
</svg>
