<svg xmlns="http://www.w3.org/2000/svg" width="500" height="500" fill="none" viewBox="0 0 500 500"><g clip-path="url(#a)"><mask id="b" width="500" height="500" x="0" y="0" maskUnits="userSpaceOnUse" style="mask-type:luminance"><path fill="#fff" d="M325 0H175C78.35 0 0 78.35 0 175v150c0 96.65 78.35 175 175 175h150c96.65 0 175-78.35 175-175V175C500 78.35 421.65 0 325 0"/></mask><g mask="url(#b)"><path fill="#fff" d="M500 0H0v500h500z"/><g clip-path="url(#c)"><g fill="#0019ff" clip-path="url(#d)"><path d="M116.467 121.235h267.02c14.544 0 27.938 7.769 35.209 20.353l50.793 88.086a40.71 40.71 0 0 1 0 40.706l-50.793 88.087c-7.271 12.584-20.665 20.353-35.209 20.353h-267.02c-14.543 0-27.938-7.769-35.21-20.353l-50.79-88.141a40.7 40.7 0 0 1 0-40.706l50.79-88.032c7.272-12.584 20.667-20.353 35.21-20.353" opacity=".4"/><path d="M116.467 121.235h187.91c14.543 0 27.938 7.769 35.208 20.353l50.791 88.086a40.7 40.7 0 0 1 0 40.706l-50.791 88.087c-7.27 12.584-20.665 20.353-35.208 20.353h-187.91c-14.543 0-27.938-7.769-35.21-20.353l-50.79-88.141a40.7 40.7 0 0 1 0-40.706l50.79-88.032c7.272-12.584 20.667-20.353 35.21-20.353" opacity=".4"/><path d="M116.467 121.235H225.21c14.544 0 27.938 7.769 35.21 20.353l50.791 88.086a40.71 40.71 0 0 1 0 40.706l-50.791 88.087c-7.272 12.584-20.666 20.353-35.21 20.353H116.467c-14.543 0-27.938-7.769-35.21-20.353l-50.79-88.141a40.7 40.7 0 0 1 0-40.706l50.79-88.032c7.272-12.584 20.667-20.353 35.21-20.353" opacity=".4"/></g></g></g></g><defs><clipPath id="a"><path fill="#fff" d="M0 0h500v500H0z"/></clipPath><clipPath id="c"><path fill="#fff" d="M25 121.235h450v257.53H25z"/></clipPath><clipPath id="d"><path fill="#fff" d="M25 121.235h450v257.53H25z"/></clipPath></defs></svg>